# xmcd
#
# Track frame offsets:
#	150
#	17037
#	33444
#	51007
#	70505
#	87643
#	102761
#	114891
#	130722
#	149854
#	166672
#	180734
#	202309
#	218606
#	236180
#	258745
#	275610
#	291025
#	305853
#	323933
#	339838
#
# Disc length: 4770
#
# Revision: 1
# Processed by: cddbd v1.5.1PL0 Copyright (c) Steve Scherf et al.
# Submitted via: CDex 1.50beta10
# Normalized: r0:DSETVAR1
#
DISCID=4012a015
DTITLE=Various Artist - Favorites Hits
DYEAR=2003
DGENRE=Country
TTITLE0=Aaron and Thea Tippin - Love Like There's No Tomorrow
TTITLE1=Rascal Flatts - These Days
TTITLE2=Blake Shelton - - The Baby
TTITLE3=Gary Allan - The One
TTITLE4=Leann Rimes - Suddenly
TTITLE5=Mark Wills - Nineteen Somethin'
TTITLE6=Emerson Drive - Fall Into Me
TTITLE7=Allison Paige - Send A Message
TTITLE8=Martina McBride - Concrete Angel
TTITLE9=Collin Raye and Bobbie Eakes - I'm Tired Of Loving This Way
TTITLE10=Toby Keith - He Ain't Worth Missing
TTITLE11=Keith Urban - Raining On Sunday
TTITLE12=Steve Holy - Good Morning Beautiful
TTITLE13=Kellie Coffey - At The End Of The Day
TTITLE14=Sheryl Crow and Kid Rock - Picture
TTITLE15=Chris Cagle - What A Beautiful Day
TTITLE16=Randy Travis - Three Wooden Crosses
TTITLE17=Brian McComas - 99.9% Sure (I've Never Been Here Before)
TTITLE18=Darryl Worley - Have You Forgotten?
TTITLE19=Phil Vassar - This Is God
TTITLE20=Terri Clark - Three Mississippi
EXTD=YEAR: 2003
EXTT0=
EXTT1=
EXTT2=
EXTT3=
EXTT4=
EXTT5=
EXTT6=
EXTT7=
EXTT8=
EXTT9=
EXTT10=
EXTT11=
EXTT12=
EXTT13=
EXTT14=
EXTT15=
EXTT16=
EXTT17=
EXTT18=
EXTT19=
EXTT20=
PLAYORDER=
